# xmcd
#
# Track frame offsets: 
#        195
#        14835
#        34325
#        51410
#        71002
#        84150
#        98795
#        119317
#        129150
#        148595
#
# Disc length: 2274 seconds
#
# Revision: 3
# Processed by: cddbd v1.5.1PL0 Copyright (c) Steve Scherf et al.
# Submitted via: ExactAudioCopy v0.95b2
#
DISCID=8908e00a
DTITLE=Roomful Of Blues - The First Album
DYEAR=1977
DGENRE=Blues
TTITLE0=Red, Hot and Blue
TTITLE1=Love Struck
TTITLE2=That's My Life
TTITLE3=Duke's Blues
TTITLE4=Texas Flood
TTITLE5=Give It Up
TTITLE6=Stormy Monday
TTITLE7=Take It Like A Man
TTITLE8=Still In Love With You
TTITLE9=Honey Hush
EXTD=YEAR: 1988 ID3G: 0
EXTT0=
EXTT1=
EXTT2=
EXTT3=
EXTT4=
EXTT5=
EXTT6=
EXTT7=
EXTT8=
EXTT9=
PLAYORDER=
